<svg xmlns="http://www.w3.org/2000/svg" viewBox="0 0 59.58 59.58"><defs><style>.cls-1{fill:#d4de24;}.cls-2{fill:#231f20;}</style></defs><g id="Layer_2" data-name="Layer 2"><g id="Layer_1-2" data-name="Layer 1"><circle class="cls-1" cx="29.79" cy="29.79" r="29.79"/><path class="cls-2" d="M39,18.52a2,2,0,1,0,2,2.05A2,2,0,0,0,39,18.52Z"/><path class="cls-2" d="M29.93,21.15a8.6,8.6,0,1,0,8.6,8.6A8.61,8.61,0,0,0,29.93,21.15Zm0,14.11a5.51,5.51,0,1,1,5.51-5.51A5.51,5.51,0,0,1,29.93,35.26Z"/><path class="cls-2" d="M36.76,47.21H22.82a10.51,10.51,0,0,1-10.5-10.49V22.77a10.51,10.51,0,0,1,10.5-10.49H36.76A10.5,10.5,0,0,1,47.25,22.77v14A10.5,10.5,0,0,1,36.76,47.21ZM22.82,15.57a7.21,7.21,0,0,0-7.21,7.2v14a7.21,7.21,0,0,0,7.21,7.2H36.76A7.22,7.22,0,0,0,44,36.72V22.77a7.22,7.22,0,0,0-7.21-7.2Z"/></g></g></svg>