<svg xmlns="http://www.w3.org/2000/svg" viewBox="0 0 59.58 59.58"><defs><style>.cls-1{fill:#fff;}</style></defs><g id="Layer_2" data-name="Layer 2"><g id="Layer_1-2" data-name="Layer 1"><circle cx="29.79" cy="29.79" r="29.79"/><path class="cls-1" d="M46.25,19.58a13.46,13.46,0,0,1-3.29.94c.53-.09,1.31-1.05,1.62-1.43a6.14,6.14,0,0,0,1.09-2c0-.06,0-.13,0-.17a.17.17,0,0,0-.17,0,16.61,16.61,0,0,1-3.9,1.49.26.26,0,0,1-.27-.07A2.83,2.83,0,0,0,41,18a6.65,6.65,0,0,0-1.89-1.15,6.5,6.5,0,0,0-2.89-.47,6.8,6.8,0,0,0-2.75.78A6.9,6.9,0,0,0,31.24,19a6.64,6.64,0,0,0-1.32,2.64,7.14,7.14,0,0,0-.07,2.8c0,.16,0,.18-.14.16-5.35-.8-9.78-2.71-13.38-6.82-.16-.17-.24-.17-.37,0-1.58,2.36-.81,6.15,1.15,8,.27.25.54.5.83.72a6.91,6.91,0,0,1-2.59-.72c-.15-.1-.23,0-.24.13a3.37,3.37,0,0,0,0,.77,6.86,6.86,0,0,0,4.23,5.47,3.28,3.28,0,0,0,.86.26,7.38,7.38,0,0,1-2.54.08c-.18,0-.25.06-.18.24a7.09,7.09,0,0,0,5.32,4.45c.24,0,.48,0,.73.1l-.05.05c-.59.91-2.67,1.59-3.63,1.92a13,13,0,0,1-5.52.71c-.3,0-.36,0-.44,0s0,.12.08.2c.38.25.76.47,1.15.68a19,19,0,0,0,3.69,1.48c6.63,1.83,14.11.48,19.09-4.47,3.91-3.88,5.28-9.24,5.28-14.61,0-.21.24-.32.39-.43a13.05,13.05,0,0,0,2.6-2.7.83.83,0,0,0,.17-.52v0C46.38,19.5,46.38,19.52,46.25,19.58Z"/></g></g></svg>