<svg xmlns="http://www.w3.org/2000/svg" viewBox="0 0 59.58 59.58"><defs><style>.cls-1{fill:#d4de24;}.cls-2{fill:#231f20;}</style></defs><g id="Layer_2" data-name="Layer 2"><g id="Layer_1-2" data-name="Layer 1"><circle class="cls-1" cx="29.79" cy="29.79" r="29.79"/><path class="cls-2" d="M24.37,12.35h.06l.08.13c.32.59.61,1.18.88,1.79.07.17.08.17.25.15a20.37,20.37,0,0,1,2.05-.22c.66,0,1.31-.07,2-.08.43,0,.86,0,1.28,0s.84,0,1.25.08c.6,0,1.2.13,1.8.2.16,0,.17,0,.24-.13.21-.47.43-.93.65-1.39.09-.19.2-.37.3-.55h.06l.18.05,1.38.28a31,31,0,0,1,6.12,2.1.46.46,0,0,1,.17.14c.1.17.21.34.32.5a35.39,35.39,0,0,1,2.42,4.39,33.65,33.65,0,0,1,1.52,3.91,32.71,32.71,0,0,1,1,4,29.66,29.66,0,0,1,.48,4.61s0,.09,0,.13v2.14c0,.06,0,.11,0,.17s0,.31,0,.47c0,.47-.07,1-.1,1.43a.43.43,0,0,1-.22.39c-.65.48-1.31.94-2,1.37a31.64,31.64,0,0,1-4.23,2.24,30.77,30.77,0,0,1-3,1.11c-.07,0-.12.06-.18.08H39l-.07-.1A24.16,24.16,0,0,1,37,38.59a.36.36,0,0,1,0-.11c.55-.24,1.1-.48,1.63-.73a15.2,15.2,0,0,0,1.58-.86l-.06-.06-.62-.5a.18.18,0,0,0-.2,0l-.87.39a22.08,22.08,0,0,1-3.69,1.2,20.27,20.27,0,0,1-2.57.43c-.6.05-1.2.11-1.8.13s-1.28,0-1.92,0-1.38-.12-2.07-.23a22,22,0,0,1-4.23-1.11c-.63-.22-1.25-.48-1.86-.76a.18.18,0,0,0-.22,0c-.18.16-.38.3-.57.45l-.1.1.13.08a20,20,0,0,0,2.94,1.44.46.46,0,0,1,.14.07l-.07.17a23.75,23.75,0,0,1-1.75,2.9c-.07.11-.14.22-.22.33H20.5a.84.84,0,0,0-.14-.06l-1.17-.41a29.19,29.19,0,0,1-4-1.75,30.23,30.23,0,0,1-3-1.8c-.4-.27-.8-.56-1.19-.85a.23.23,0,0,1-.13-.18c0-.23,0-.46-.05-.69,0-.46,0-.92-.07-1.38a.48.48,0,0,0-.05-.14V32.43a.44.44,0,0,0,.05-.15c0-.2,0-.41,0-.62,0-.5.07-1,.11-1.5a30.92,30.92,0,0,1,.54-3.47A32.76,32.76,0,0,1,13,21.55a35.94,35.94,0,0,1,1.82-3.87c.51-.92,1.05-1.83,1.63-2.72a.56.56,0,0,1,.23-.2c.16-.06.32-.14.47-.21a30.59,30.59,0,0,1,6.53-2.06ZM26.9,28.5c0-.06,0-.18,0-.3a3.91,3.91,0,0,0-.21-1.07A3.57,3.57,0,0,0,24.81,25a3,3,0,0,0-2.92.14,3.51,3.51,0,0,0-1.47,1.73,4.26,4.26,0,0,0-.19,2.88,3.82,3.82,0,0,0,1.21,1.94,3,3,0,0,0,2.73.7,3.22,3.22,0,0,0,1.93-1.31A4.21,4.21,0,0,0,26.9,28.5Zm12.65.05a6.48,6.48,0,0,0-.08-.77A3.74,3.74,0,0,0,38,25.29a3,3,0,0,0-2.9-.4,3.39,3.39,0,0,0-1.85,1.68,4.22,4.22,0,0,0-.44,2.7,3.94,3.94,0,0,0,1.31,2.41,3,3,0,0,0,2.85.69,3.31,3.31,0,0,0,1.9-1.4A4.41,4.41,0,0,0,39.55,28.55Z"/></g></g></svg>